<?xml version="1.0" standalone="no"?>
<!DOCTYPE svg PUBLIC "-//W3C//DTD SVG 20010904//EN"
 "http://www.w3.org/TR/2001/REC-SVG-20010904/DTD/svg10.dtd">
<svg version="1.0" xmlns="http://www.w3.org/2000/svg"
 width="842.000000pt" height="842.000000pt" viewBox="0 0 842.000000 842.000000"
 preserveAspectRatio="xMidYMid meet">
<metadata>
Created by potrace 1.14, written by Peter Selinger 2001-2017
</metadata>
<g transform="translate(0.000000,842.000000) scale(0.100000,-0.100000)"
fill="#000000" stroke="none">
<path d="M4142 6604 c-12 -30 -92 -271 -96 -289 -1 -5 -17 -55 -35 -110 -43
-132 -42 -130 -41 -130 0 0 -11 -34 -25 -75 -15 -41 -28 -82 -30 -90 -2 -8 -8
-27 -14 -43 -6 -15 -13 -38 -16 -50 -2 -12 -14 -49 -25 -82 -12 -33 -23 -67
-25 -75 -2 -8 -8 -28 -15 -45 -6 -16 -11 -31 -11 -32 0 -2 -1 -8 -4 -15 -2 -7
-31 -101 -65 -208 -34 -107 -77 -244 -97 -305 -19 -60 -36 -114 -37 -120 -4
-16 -56 -185 -73 -235 -8 -25 -16 -52 -18 -60 -2 -8 -12 -42 -23 -75 -11 -33
-30 -94 -42 -135 -12 -41 -28 -95 -36 -120 -8 -25 -14 -47 -13 -50 0 -3 -5
-18 -11 -35 -7 -16 -22 -66 -35 -110 -13 -44 -44 -150 -70 -235 -26 -85 -48
-162 -51 -170 -4 -17 -14 -54 -77 -270 -25 -85 -52 -176 -60 -202 -8 -27 -13
-48 -11 -48 2 0 -4 -19 -12 -42 -9 -24 -17 -50 -19 -58 -4 -18 -23 -90 -65
-235 -17 -60 -32 -114 -33 -120 -34 -137 -94 -345 -99 -345 -9 0 -109 62 -126
77 -7 7 -18 13 -23 13 -5 0 -15 5 -22 11 -15 13 -148 99 -153 99 -2 0 -36 21
-76 47 -138 88 -718 440 -818 496 -19 10 -105 59 -190 109 -159 91 -165 95
-228 129 -20 11 -50 29 -67 39 -38 24 -50 25 -27 3 44 -42 154 -144 236 -218
49 -44 105 -96 126 -115 21 -19 59 -54 86 -76 27 -23 61 -52 75 -65 41 -38
151 -134 189 -165 19 -16 46 -40 60 -54 14 -14 48 -43 75 -65 27 -22 61 -51
76 -65 14 -14 37 -34 50 -44 13 -11 51 -42 84 -70 33 -28 71 -61 85 -72 14
-12 75 -63 135 -113 61 -50 117 -97 125 -104 8 -7 40 -33 70 -58 30 -24 57
-46 60 -49 3 -3 28 -24 55 -45 28 -22 55 -45 60 -51 6 -6 46 -39 90 -75 44
-35 82 -66 85 -69 27 -29 112 -90 119 -86 5 4 24 43 41 89 144 371 174 449
191 497 11 30 24 64 29 75 5 11 32 83 60 160 29 77 55 149 60 160 7 18 21 53
25 65 1 3 4 12 8 20 3 8 25 67 48 130 23 63 50 136 59 163 10 26 16 47 13 47
-3 0 -1 6 4 13 6 6 52 129 102 272 51 143 96 269 101 280 10 24 53 145 85 240
12 39 34 100 49 138 14 37 26 69 26 72 1 8 11 38 23 70 7 17 12 32 12 35 2 11
17 56 25 75 5 11 34 94 64 183 59 177 59 177 89 77 16 -52 174 -512 222 -645
14 -41 28 -79 29 -85 2 -5 6 -17 9 -25 3 -8 20 -55 37 -105 17 -49 34 -97 37
-105 3 -8 7 -19 9 -25 1 -5 17 -48 34 -95 18 -47 33 -89 35 -95 2 -11 12 -39
25 -70 8 -19 61 -169 82 -230 5 -16 14 -39 19 -50 5 -11 31 -83 59 -160 28
-77 55 -149 60 -160 5 -11 27 -69 49 -130 22 -60 49 -135 61 -165 12 -30 36
-95 55 -145 18 -49 54 -142 79 -205 25 -63 46 -118 46 -123 0 -4 9 -26 19 -50
11 -23 32 -77 48 -119 15 -43 32 -78 37 -78 7 0 197 149 216 170 3 3 39 32 80
65 41 32 77 62 80 65 3 4 43 38 90 76 83 67 121 99 144 119 6 6 36 30 66 55
30 25 60 49 66 55 10 9 48 42 149 126 43 36 91 77 109 94 6 6 40 35 76 65 91
77 107 91 143 124 18 15 52 44 76 65 24 20 56 47 70 61 14 14 58 53 96 86 39
34 82 73 96 85 14 13 58 53 98 89 40 36 99 89 130 118 31 29 82 76 113 104 32
28 56 53 54 55 -3 3 -247 -131 -286 -157 -8 -6 -22 -13 -30 -17 -8 -4 -71 -40
-140 -81 -69 -41 -145 -86 -170 -100 -25 -14 -57 -33 -72 -43 -14 -11 -29 -19
-32 -19 -3 0 -30 -16 -60 -35 -30 -19 -59 -35 -64 -35 -4 0 -17 -8 -28 -18
-10 -10 -32 -25 -49 -34 -16 -8 -88 -51 -160 -95 -71 -44 -141 -86 -154 -94
-14 -8 -30 -18 -35 -22 -13 -10 -212 -134 -241 -151 -11 -6 -40 -25 -65 -41
-131 -84 -152 -97 -157 -91 -5 5 -60 193 -67 233 -3 13 -9 37 -15 55 -6 18
-25 85 -42 148 -17 63 -40 144 -50 180 -49 171 -101 357 -105 370 -1 8 -17 62
-35 120 -17 58 -35 119 -39 135 -20 70 -47 161 -52 175 -3 8 -33 107 -67 220
-73 244 -65 215 -80 270 -7 25 -31 104 -53 175 -22 72 -57 186 -78 255 -21 69
-55 177 -75 240 -35 109 -52 165 -109 348 -13 42 -31 96 -40 120 -8 23 -15 46
-16 50 0 9 -126 403 -146 458 -8 23 -16 50 -18 61 -2 10 -11 36 -20 56 -8 21
-15 38 -14 40 1 1 -33 110 -76 242 -42 132 -81 251 -85 264 l-7 24 -12 -29z"/>
</g>
</svg>
